<?xml version="1.0" standalone="no"?>
<!DOCTYPE svg PUBLIC "-//W3C//DTD SVG 20010904//EN"
 "http://www.w3.org/TR/2001/REC-SVG-20010904/DTD/svg10.dtd">
<svg version="1.0" xmlns="http://www.w3.org/2000/svg"
 width="256.000000pt" height="256.000000pt" viewBox="0 0 256.000000 256.000000"
 preserveAspectRatio="xMidYMid meet">
<metadata>
Created by potrace 1.14, written by Peter Selinger 2001-2017
</metadata>
<g transform="translate(0.000000,256.000000) scale(0.100000,-0.100000)"
fill="#000000" stroke="none">
<path d="M416 1333 c53 -153 103 -297 111 -321 l15 -43 90 3 90 3 109 315 c60
173 109 316 109 318 0 1 -35 2 -78 2 l-77 0 -74 -235 c-41 -129 -77 -235 -81
-235 -3 0 -39 106 -80 235 l-74 235 -77 0 -78 0 95 -277z"/>
<path d="M1178 1359 l-3 -252 -27 -20 c-38 -28 -87 -14 -107 31 -14 32 -15 32
-84 32 l-69 0 7 -37 c16 -90 82 -143 186 -151 98 -7 181 34 219 108 18 36 20
59 20 290 l0 250 -70 0 -70 0 -2 -251z"/>
<path d="M1434 1593 c3 -10 41 -146 86 -303 45 -157 83 -293 86 -302 4 -15 17
-18 74 -18 l68 0 16 53 c8 28 34 118 58 200 23 81 45 147 48 147 5 0 63 -189
112 -367 l9 -33 69 0 c57 0 70 3 74 18 3 9 41 145 86 302 45 157 83 293 86
303 5 15 -3 17 -70 17 l-75 0 -9 -32 c-5 -18 -29 -117 -53 -220 -24 -103 -46
-182 -50 -175 -3 6 -30 105 -59 220 l-53 207 -66 0 -67 0 -54 -207 c-29 -115
-56 -211 -60 -216 -3 -4 -26 75 -50 175 -24 101 -47 198 -52 216 l-9 32 -75 0
c-67 0 -75 -2 -70 -17z"/>
</g>
</svg>
